0
SECTION
2
HEADER
9
$INSUNITS
70
4
9
$ACADVER
1
AC1014
9
$HANDSEED
5
FFFF
0
ENDSEC
0
SECTION
2
TABLES
0
TABLE
2
VPORT
5
8
100
AcDbSymbolTable
0
ENDTAB
0
TABLE
2
LTYPE
5
5
100
AcDbSymbolTable
0
LTYPE
5
14
100
AcDbSymbolTableRecord
100
AcDbLinetypeTableRecord
2
BYBLOCK
70
0
0
LTYPE
5
15
100
AcDbSymbolTableRecord
100
AcDbLinetypeTableRecord
2
BYLAYER
70
0
0
ENDTAB
0
TABLE
2
LAYER
5
2
100
AcDbSymbolTable
70
2
0
LAYER
5
50
100
AcDbSymbolTableRecord
100
AcDbLayerTableRecord
2
0
70
0
6
CONTINUOUS
0
ENDTAB
0
TABLE
2
STYLE
5
3
100
AcDbSymbolTable
70
1
0
STYLE
5
11
100
AcDbSymbolTableRecord
100
AcDbTextStyleTableRecord
2
STANDARD
70
0
0
ENDTAB
0
TABLE
2
VIEW
5
6
100
AcDbSymbolTable
70
0
0
ENDTAB
0
TABLE
2
UCS
5
7
100
AcDbSymbolTable
70
0
0
ENDTAB
0
TABLE
2
APPID
5
9
100
AcDbSymbolTable
70
2
0
APPID
5
12
100
AcDbSymbolTableRecord
100
AcDbRegAppTableRecord
2
ACAD
70
0
0
ENDTAB
0
TABLE
2
DIMSTYLE
5
A
100
AcDbSymbolTable
70
1
0
ENDTAB
0
TABLE
2
BLOCK_RECORD
5
1
100
AcDbSymbolTable
70
1
0
BLOCK_RECORD
5
1F
100
AcDbSymbolTableRecord
100
AcDbBlockTableRecord
2
*MODEL_SPACE
0
BLOCK_RECORD
5
1B
100
AcDbSymbolTableRecord
100
AcDbBlockTableRecord
2
*PAPER_SPACE
0
ENDTAB
0
ENDSEC
0
SECTION
2
BLOCKS
0
BLOCK
5
20
100
AcDbEntity
100
AcDbBlockBegin
2
*MODEL_SPACE
0
ENDBLK
5
21
100
AcDbEntity
100
AcDbBlockEnd
0
BLOCK
5
1C
100
AcDbEntity
100
AcDbBlockBegin
2
*PAPER_SPACE
0
ENDBLK
5
1D
100
AcDbEntity
100
AcDbBlockEnd
0
ENDSEC
0
SECTION
2
ENTITIES
0
CIRCLE
5
100
100
AcDbEntity
8
0
100
AcDbCircle
10
73.427781679544054
20
-152.44929805555554
30
0
40
3.25
0
CIRCLE
5
101
100
AcDbEntity
8
0
100
AcDbCircle
10
82.117781679544052
20
-152.44929805555554
30
0
40
3.2499999999999929
0
CIRCLE
5
102
100
AcDbEntity
8
0
100
AcDbCircle
10
82.117781679544052
20
-182.44929805555554
30
0
40
3.2499999999999929
0
CIRCLE
5
103
100
AcDbEntity
8
0
100
AcDbCircle
10
82.117781679544052
20
-172.44929805555554
30
0
40
3.2499999999999929
0
CIRCLE
5
104
100
AcDbEntity
8
0
100
AcDbCircle
10
82.117781679544052
20
-162.44929805555554
30
0
40
3.2499999999999929
0
CIRCLE
5
105
100
AcDbEntity
8
0
100
AcDbCircle
10
82.117781679544052
20
-192.44929805555554
30
0
40
3.2499999999999929
0
CIRCLE
5
106
100
AcDbEntity
8
0
100
AcDbCircle
10
73.427781679544054
20
-162.44929805555554
30
0
40
3.2499999999999929
0
CIRCLE
5
107
100
AcDbEntity
8
0
100
AcDbCircle
10
73.427781679544054
20
-172.44929805555554
30
0
40
3.2499999999999929
0
CIRCLE
5
108
100
AcDbEntity
8
0
100
AcDbCircle
10
73.427781679544054
20
-182.44929805555554
30
0
40
3.2499999999999929
0
CIRCLE
5
109
100
AcDbEntity
8
0
100
AcDbCircle
10
73.427781679544054
20
-192.44929805555554
30
0
40
3.2499999999999929
0
CIRCLE
5
110
100
AcDbEntity
8
0
100
AcDbCircle
10
98.227781679544037
20
-196.64929805555551
30
0
40
1.7500000000000071
0
CIRCLE
5
111
100
AcDbEntity
8
0
100
AcDbCircle
10
161.22778167954405
20
-196.64929805555551
30
0
40
1.7500000000000071
0
CIRCLE
5
112
100
AcDbEntity
8
0
100
AcDbCircle
10
98.227781679544037
20
-148.44929805555554
30
0
40
1.7500000000000071
0
CIRCLE
5
113
100
AcDbEntity
8
0
100
AcDbCircle
10
161.22778167954405
20
-148.44929805555554
30
0
40
1.7500000000000071
0
LWPOLYLINE
5
114
100
AcDbEntity
8
0
100
AcDbPolyline
90
12
70
1
43
0.0
10
91.05778167954405
20
-140.94929805555554
10
90.057781679544064
20
-140.94929805555554
10
71.227781679544051
20
-140.94929805555554
42
0.41421356237309243
10
64.227781679544066
20
-147.94929805555552
10
64.227781679544066
20
-197.14929805555553
42
0.41421356237309093
10
71.227781679543966
20
-204.14929805555551
10
161.72778167954405
20
-204.14929805555551
42
0.41421356237309059
10
168.72778167954405
20
-197.14929805555556
10
168.72778167954405
20
-188.95929805555554
10
168.72778167954405
20
-158.43929805555553
10
168.72778167954405
20
-147.94929805555554
42
0.41421356237309059
10
161.72778167954408
20
-140.94929805555554
0
LWPOLYLINE
5
115
100
AcDbEntity
8
0
100
AcDbPolyline
90
5
70
1
43
0.0
10
146.22778167954405
20
-175.28929805555549
10
141.72778167954405
20
-175.28929805555549
10
137.22778167954405
20
-175.28929805555549
10
137.22778167954405
20
-179.70629281129715
42
4.9073344987240812
10
146.22778167954405
20
-179.70629281129715
0
LWPOLYLINE
5
116
100
AcDbEntity
8
0
100
AcDbPolyline
90
5
70
1
43
0.0
10
128.72778167954405
20
-178.14929805555551
10
110.72778167954404
20
-178.14929805555551
10
110.72778167954404
20
-197.14929805555553
10
111.62155272758882
20
-197.14929805555553
10
128.72778167954405
20
-197.14929805555553
0
ENDSEC
0
SECTION
2
OBJECTS
0
DICTIONARY
5
C
100
AcDbDictionary
3
ACAD_GROUP
350
D
3
ACAD_MLINESTYLE
350
17
0
DICTIONARY
5
D
100
AcDbDictionary
0
DICTIONARY
5
1A
330
C
100
AcDbDictionary
0
DICTIONARY
5
17
100
AcDbDictionary
0
ENDSEC
0
EOF
