0
SECTION
2
HEADER
9
$INSUNITS
70
4
9
$ACADVER
1
AC1014
9
$HANDSEED
5
FFFF
0
ENDSEC
0
SECTION
2
TABLES
0
TABLE
2
VPORT
5
8
100
AcDbSymbolTable
0
ENDTAB
0
TABLE
2
LTYPE
5
5
100
AcDbSymbolTable
0
LTYPE
5
14
100
AcDbSymbolTableRecord
100
AcDbLinetypeTableRecord
2
BYBLOCK
70
0
0
LTYPE
5
15
100
AcDbSymbolTableRecord
100
AcDbLinetypeTableRecord
2
BYLAYER
70
0
0
ENDTAB
0
TABLE
2
LAYER
5
2
100
AcDbSymbolTable
70
2
0
LAYER
5
50
100
AcDbSymbolTableRecord
100
AcDbLayerTableRecord
2
0
70
0
6
CONTINUOUS
0
ENDTAB
0
TABLE
2
STYLE
5
3
100
AcDbSymbolTable
70
1
0
STYLE
5
11
100
AcDbSymbolTableRecord
100
AcDbTextStyleTableRecord
2
STANDARD
70
0
0
ENDTAB
0
TABLE
2
VIEW
5
6
100
AcDbSymbolTable
70
0
0
ENDTAB
0
TABLE
2
UCS
5
7
100
AcDbSymbolTable
70
0
0
ENDTAB
0
TABLE
2
APPID
5
9
100
AcDbSymbolTable
70
2
0
APPID
5
12
100
AcDbSymbolTableRecord
100
AcDbRegAppTableRecord
2
ACAD
70
0
0
ENDTAB
0
TABLE
2
DIMSTYLE
5
A
100
AcDbSymbolTable
70
1
0
ENDTAB
0
TABLE
2
BLOCK_RECORD
5
1
100
AcDbSymbolTable
70
1
0
BLOCK_RECORD
5
1F
100
AcDbSymbolTableRecord
100
AcDbBlockTableRecord
2
*MODEL_SPACE
0
BLOCK_RECORD
5
1B
100
AcDbSymbolTableRecord
100
AcDbBlockTableRecord
2
*PAPER_SPACE
0
ENDTAB
0
ENDSEC
0
SECTION
2
BLOCKS
0
BLOCK
5
20
100
AcDbEntity
100
AcDbBlockBegin
2
*MODEL_SPACE
0
ENDBLK
5
21
100
AcDbEntity
100
AcDbBlockEnd
0
BLOCK
5
1C
100
AcDbEntity
100
AcDbBlockBegin
2
*PAPER_SPACE
0
ENDBLK
5
1D
100
AcDbEntity
100
AcDbBlockEnd
0
ENDSEC
0
SECTION
2
ENTITIES
0
LINE
5
100
100
AcDbEntity
8
0
100
AcDbLine
10
109.86201494470973
20
-183.78999027777758
30
0
11
109.84102466746219
21
-183.78999027777758
31
0
0
LWPOLYLINE
5
101
100
AcDbEntity
8
0
100
AcDbPolyline
90
9
70
1
43
0.0
10
137.4427806368499
20
-172.99513138888884
10
96.167781679544063
20
-172.99513138888884
10
96.167781679544063
20
-152.06133333333361
10
137.4427806368499
20
-152.06133333333361
10
138.44278063684988
20
-152.06133333333361
10
138.44278063684988
20
-161.69819871878232
10
146.22778167954405
20
-162.37929805555555
42
-1.2999734572440043
10
142.75709113726217
20
-175.45830349721416
10
138.44278063684988
20
-172.99513138888884
0
CIRCLE
5
102
100
AcDbEntity
8
0
100
AcDbCircle
10
73.427781679544054
20
-152.44929805555554
30
0
40
3.25
0
CIRCLE
5
103
100
AcDbEntity
8
0
100
AcDbCircle
10
82.117781679544052
20
-152.44929805555554
30
0
40
3.2499999999999929
0
CIRCLE
5
104
100
AcDbEntity
8
0
100
AcDbCircle
10
82.117781679544052
20
-182.44929805555554
30
0
40
3.2499999999999929
0
CIRCLE
5
105
100
AcDbEntity
8
0
100
AcDbCircle
10
82.117781679544052
20
-172.44929805555554
30
0
40
3.2499999999999929
0
CIRCLE
5
106
100
AcDbEntity
8
0
100
AcDbCircle
10
82.117781679544052
20
-162.44929805555554
30
0
40
3.2499999999999929
0
CIRCLE
5
107
100
AcDbEntity
8
0
100
AcDbCircle
10
82.117781679544052
20
-192.44929805555554
30
0
40
3.2499999999999929
0
CIRCLE
5
108
100
AcDbEntity
8
0
100
AcDbCircle
10
73.427781679544054
20
-162.44929805555554
30
0
40
3.2499999999999929
0
CIRCLE
5
109
100
AcDbEntity
8
0
100
AcDbCircle
10
73.427781679544054
20
-172.44929805555554
30
0
40
3.2499999999999929
0
CIRCLE
5
110
100
AcDbEntity
8
0
100
AcDbCircle
10
73.427781679544054
20
-182.44929805555554
30
0
40
3.2499999999999929
0
CIRCLE
5
111
100
AcDbEntity
8
0
100
AcDbCircle
10
73.427781679544054
20
-192.44929805555554
30
0
40
3.2499999999999929
0
CIRCLE
5
112
100
AcDbEntity
8
0
100
AcDbCircle
10
103.92778167954405
20
-184.22929805555555
30
0
40
3.9999999999999858
0
CIRCLE
5
113
100
AcDbEntity
8
0
100
AcDbCircle
10
124.45778167954404
20
-184.22929805555555
30
0
40
3.9999999999999858
0
CIRCLE
5
114
100
AcDbEntity
8
0
100
AcDbCircle
10
141.39778167954407
20
-184.14929805555551
30
0
40
1.9999999999999929
0
CIRCLE
5
115
100
AcDbEntity
8
0
100
AcDbCircle
10
98.227781679544037
20
-196.64929805555551
30
0
40
1.7500000000000071
0
CIRCLE
5
116
100
AcDbEntity
8
0
100
AcDbCircle
10
161.22778167954405
20
-196.64929805555551
30
0
40
1.7500000000000071
0
CIRCLE
5
117
100
AcDbEntity
8
0
100
AcDbCircle
10
98.227781679544037
20
-148.44929805555554
30
0
40
1.7500000000000071
0
CIRCLE
5
118
100
AcDbEntity
8
0
100
AcDbCircle
10
161.22778167954405
20
-148.44929805555554
30
0
40
1.7500000000000071
0
LWPOLYLINE
5
119
100
AcDbEntity
8
0
100
AcDbPolyline
90
8
70
1
43
0.0
10
92.487781679544071
20
-176.77929805555553
10
91.217781679544061
20
-176.77929805555553
10
89.947781679544065
20
-176.77929805555553
10
89.947781679544065
20
-197.09929805555555
10
74.707781679544055
20
-197.09929805555555
10
74.707781679544055
20
-198.36929805555553
10
74.707781679544055
20
-199.63929805555551
10
92.487781679544071
20
-199.63929805555551
0
LWPOLYLINE
5
120
100
AcDbEntity
8
0
100
AcDbPolyline
90
34
70
1
43
0.0
10
166.72915907753378
20
-156.43206576578166
10
156.22778167954405
20
-156.43929805555553
10
155.22778167954408
20
-156.43929805555553
10
155.22778167954408
20
-172.43929805555553
10
156.22778167954405
20
-172.43929805555553
10
166.7278877262103
20
-172.43929805555553
10
166.7278877262103
20
-175.95929805555554
10
152.72778167954405
20
-175.95929805555554
10
150.72778167954405
20
-175.95929805555554
10
150.72778167954405
20
-190.95929805555554
10
152.72778167954405
20
-190.95929805555554
10
166.72778167954405
20
-190.95929805555554
10
166.72778167954405
20
-192.95929805555551
10
166.72778167954405
20
-197.14929805555556
42
-0.41421356237308876
10
161.72778167954405
20
-202.14929805555553
10
71.227781679543966
20
-202.14929805555553
42
-0.41421356237308932
10
66.227781679544066
20
-197.14929805555553
10
66.227781679544066
20
-147.94929805555552
42
-0.41421356237309193
10
71.227781679544066
20
-142.94929805555554
10
87.057781679544064
20
-142.94929805555554
10
87.057781679544064
20
-148.03929805555555
10
87.057781679544064
20
-149.03929805555555
10
94.057781679544064
20
-149.03929805555555
10
94.057781679544064
20
-148.03929805555555
10
94.057781679544064
20
-142.94929805555554
10
138.92778167954407
20
-142.94929805555554
10
140.92778167954407
20
-142.94929805555554
10
140.92778167954407
20
-148.44929805555554
10
149.92778167954407
20
-148.44929805555554
10
149.92778167954407
20
-142.94929130384349
10
151.92778167954404
20
-142.94929130384349
10
161.72778030164358
20
-142.94929805555574
42
-0.4142136430886344
10
166.72778167954405
20
-147.94929805555557
10
166.72778167954405
20
-154.43206624008803
0
LINE
5
121
100
AcDbEntity
8
0
100
AcDbLine
10
117.02122547373295
20
-151.29929805555554
30
0
11
119.55652442202803
21
-151.29929805555554
31
0
0
LINE
5
122
100
AcDbEntity
8
0
100
AcDbLine
10
117.02122547373295
20
-151.29929805555554
30
0
11
116.91441254659509
21
-151.19248512571801
31
0
0
SPLINE
5
123
100
AcDbEntity
8
0
100
AcDbSpline
70
1064
71
3
72
11
73
7
74
0
42
0.000000001
43
0.0000000001
44
0.0000000001
40
1.024716763348108
40
1.024716763348108
40
1.024716763348108
40
1.024716763348108
40
2
40
2
40
2
40
3
40
3
40
3
40
3
10
116.91441254659509
20
-151.19248512571801
30
0
10
115.80774360284904
20
-150.64725264690705
30
0
10
115.09811091091487
20
-149.5032501370481
30
0
10
115.09811091091487
20
-148.25922750000021
30
0
10
115.09811091091487
20
-146.98338871724411
30
0
10
115.84402307256504
20
-145.81693655037105
30
0
10
116.9911671861631
20
-145.26811805145942
30
0
0
LINE
5
124
100
AcDbEntity
8
0
100
AcDbLine
10
117.2283322586209
20
-145.21915694444422
30
0
11
119.55652442202803
21
-145.21915694444422
31
0
0
LINE
5
125
100
AcDbEntity
8
0
100
AcDbLine
10
119.55652442202803
20
-145.21915694444422
30
0
11
119.6913116736697
21
-145.21915694444422
31
0
0
SPLINE
5
126
100
AcDbEntity
8
0
100
AcDbSpline
70
1064
71
3
72
14
73
10
74
0
42
0.000000001
43
0.0000000001
44
0.0000000001
40
0.96496282124078514
40
0.96496282124078514
40
0.96496282124078514
40
0.96496282124078514
40
1
40
1
40
1
40
2
40
2
40
2
40
3
40
3
40
3
40
3
10
119.69131167366955
20
-145.21915694444414
30
0
10
119.72542373379216
20
-145.23547629878783
30
0
10
119.75953579391469
20
-145.25179565313147
30
0
10
119.7936478540372
20
-145.2681150074751
30
0
10
120.94082723789177
20
-145.81693049365791
30
0
10
121.68674576973409
20
-146.98338871724411
30
0
10
121.68674576973409
20
-148.25922750000021
30
0
10
121.68674576973409
20
-149.53477760718607
30
0
10
120.94079317765727
20
-150.70544085566073
30
0
10
119.78548519179438
20
-151.23277671570671
30
0
0
LINE
5
127
100
AcDbEntity
8
0
100
AcDbLine
10
119.55652442202803
20
-151.29929805555554
30
0
11
119.78548519179438
21
-151.23277671570671
31
0
0
LINE
5
128
100
AcDbEntity
8
0
100
AcDbLine
10
116.9911671861631
20
-145.26811805145942
30
0
11
117.2283322586209
21
-145.21915694444422
31
0
0
ENDSEC
0
SECTION
2
OBJECTS
0
DICTIONARY
5
C
100
AcDbDictionary
3
ACAD_GROUP
350
D
3
ACAD_MLINESTYLE
350
17
0
DICTIONARY
5
D
100
AcDbDictionary
0
DICTIONARY
5
1A
330
C
100
AcDbDictionary
0
DICTIONARY
5
17
100
AcDbDictionary
0
ENDSEC
0
EOF
