0
SECTION
2
HEADER
9
$INSUNITS
70
4
9
$ACADVER
1
AC1014
9
$HANDSEED
5
FFFF
0
ENDSEC
0
SECTION
2
TABLES
0
TABLE
2
VPORT
5
8
100
AcDbSymbolTable
0
ENDTAB
0
TABLE
2
LTYPE
5
5
100
AcDbSymbolTable
0
LTYPE
5
14
100
AcDbSymbolTableRecord
100
AcDbLinetypeTableRecord
2
BYBLOCK
70
0
0
LTYPE
5
15
100
AcDbSymbolTableRecord
100
AcDbLinetypeTableRecord
2
BYLAYER
70
0
0
ENDTAB
0
TABLE
2
LAYER
5
2
100
AcDbSymbolTable
70
2
0
LAYER
5
50
100
AcDbSymbolTableRecord
100
AcDbLayerTableRecord
2
0
70
0
6
CONTINUOUS
0
ENDTAB
0
TABLE
2
STYLE
5
3
100
AcDbSymbolTable
70
1
0
STYLE
5
11
100
AcDbSymbolTableRecord
100
AcDbTextStyleTableRecord
2
STANDARD
70
0
0
ENDTAB
0
TABLE
2
VIEW
5
6
100
AcDbSymbolTable
70
0
0
ENDTAB
0
TABLE
2
UCS
5
7
100
AcDbSymbolTable
70
0
0
ENDTAB
0
TABLE
2
APPID
5
9
100
AcDbSymbolTable
70
2
0
APPID
5
12
100
AcDbSymbolTableRecord
100
AcDbRegAppTableRecord
2
ACAD
70
0
0
ENDTAB
0
TABLE
2
DIMSTYLE
5
A
100
AcDbSymbolTable
70
1
0
ENDTAB
0
TABLE
2
BLOCK_RECORD
5
1
100
AcDbSymbolTable
70
1
0
BLOCK_RECORD
5
1F
100
AcDbSymbolTableRecord
100
AcDbBlockTableRecord
2
*MODEL_SPACE
0
BLOCK_RECORD
5
1B
100
AcDbSymbolTableRecord
100
AcDbBlockTableRecord
2
*PAPER_SPACE
0
ENDTAB
0
ENDSEC
0
SECTION
2
BLOCKS
0
BLOCK
5
20
100
AcDbEntity
100
AcDbBlockBegin
2
*MODEL_SPACE
0
ENDBLK
5
21
100
AcDbEntity
100
AcDbBlockEnd
0
BLOCK
5
1C
100
AcDbEntity
100
AcDbBlockBegin
2
*PAPER_SPACE
0
ENDBLK
5
1D
100
AcDbEntity
100
AcDbBlockEnd
0
ENDSEC
0
SECTION
2
ENTITIES
0
CIRCLE
5
100
100
AcDbEntity
8
0
100
AcDbCircle
10
98.227781679544037
20
-196.64929805555551
30
0
40
1.7500000000000071
0
CIRCLE
5
101
100
AcDbEntity
8
0
100
AcDbCircle
10
161.22778167954405
20
-196.64929805555551
30
0
40
1.7500000000000071
0
CIRCLE
5
102
100
AcDbEntity
8
0
100
AcDbCircle
10
98.227781679544037
20
-148.44929805555554
30
0
40
1.7500000000000071
0
CIRCLE
5
103
100
AcDbEntity
8
0
100
AcDbCircle
10
161.22778167954405
20
-148.44929805555554
30
0
40
1.7500000000000071
0
LINE
5
104
100
AcDbEntity
8
0
100
AcDbLine
10
166.72778167954405
20
-192.95929805555551
30
0
11
166.72778167954405
21
-197.14929805555556
31
0
0
ARC
5
105
100
AcDbEntity
8
0
100
AcDbCircle
10
161.72778167954402
20
-197.14929805555551
30
0
40
5.0000000000000355
100
AcDbArc
50
270.00000000000034
51
360
0
LINE
5
106
100
AcDbEntity
8
0
100
AcDbLine
10
161.72778167954405
20
-202.14929805555553
30
0
11
71.227781679543966
21
-202.14929805555553
31
0
0
ARC
5
107
100
AcDbEntity
8
0
100
AcDbCircle
10
71.227781679544066
20
-197.14929805555553
30
0
40
5.0000000000000089
100
AcDbArc
50
180
51
269.99999999999886
0
LINE
5
108
100
AcDbEntity
8
0
100
AcDbLine
10
66.227781679544066
20
-197.14929805555553
30
0
11
66.227781679544066
21
-147.94929805555552
31
0
0
ARC
5
109
100
AcDbEntity
8
0
100
AcDbCircle
10
71.22778167954408
20
-147.94929805555557
30
0
40
5.0000000000000178
100
AcDbArc
50
90.000000000000171
51
180
0
LINE
5
110
100
AcDbEntity
8
0
100
AcDbLine
10
71.227781679544066
20
-142.94929805555554
30
0
11
87.057781679544064
21
-142.94929805555554
31
0
0
ARC
5
111
100
AcDbEntity
8
0
100
AcDbCircle
10
161.72778167954402
20
-147.94929805555557
30
0
40
5.0000000000000355
100
AcDbArc
50
0
51
90.000000000000654
0
LINE
5
112
100
AcDbEntity
8
0
100
AcDbLine
10
166.72778167954405
20
-147.94929805555557
30
0
11
166.72778167954405
21
-154.43206624008803
31
0
0
LINE
5
113
100
AcDbEntity
8
0
100
AcDbLine
10
71.227781679544066
20
-144.94929805555554
30
0
11
87.057781679544078
21
-144.94929805555554
31
0
0
ARC
5
114
100
AcDbEntity
8
0
100
AcDbCircle
10
71.22778167954408
20
-147.94929805555557
30
0
40
3.0000000000000249
100
AcDbArc
50
90.00000000000027
51
180
0
LINE
5
115
100
AcDbEntity
8
0
100
AcDbLine
10
68.227781679544066
20
-197.14929805555553
30
0
11
68.227781679544066
21
-147.94929805555554
31
0
0
ARC
5
116
100
AcDbEntity
8
0
100
AcDbCircle
10
71.227781679544066
20
-197.14929805555553
30
0
40
3.0000000000000071
100
AcDbArc
50
180
51
269.99999999999886
0
LINE
5
117
100
AcDbEntity
8
0
100
AcDbLine
10
164.72778167954405
20
-192.95929805555551
30
0
11
164.72778167954405
21
-191.64929805555551
31
0
0
LINE
5
118
100
AcDbEntity
8
0
100
AcDbLine
10
164.72778167954405
20
-153.44929805555552
30
0
11
164.72778167954405
21
-154.43206624008803
31
0
0
LINE
5
119
100
AcDbEntity
8
0
100
AcDbLine
10
95.227781679544023
20
-148.44929805555554
30
0
11
95.227781679544023
21
-146.94929805555552
31
0
0
LINE
5
120
100
AcDbEntity
8
0
100
AcDbLine
10
101.22778167954405
20
-148.44929805555554
30
0
11
101.22778167954405
21
-146.94929805555554
31
0
0
LINE
5
121
100
AcDbEntity
8
0
100
AcDbLine
10
158.22778167954405
20
-148.44929805555554
30
0
11
158.22778167954402
21
-146.94929805555563
31
0
0
LINE
5
122
100
AcDbEntity
8
0
100
AcDbLine
10
161.22778167954405
20
-151.44929805555552
30
0
11
162.72778167954408
21
-151.44929805555552
31
0
0
LINE
5
123
100
AcDbEntity
8
0
100
AcDbLine
10
161.22778167954405
20
-193.64929805555551
30
0
11
162.72778167954408
21
-193.64929805555551
31
0
0
LINE
5
124
100
AcDbEntity
8
0
100
AcDbLine
10
158.22778167954405
20
-196.64929805555551
30
0
11
158.22778167954405
21
-198.14929805555553
31
0
0
LINE
5
125
100
AcDbEntity
8
0
100
AcDbLine
10
101.22778167954405
20
-196.64929805555551
30
0
11
101.22778167954405
21
-198.14929805555553
31
0
0
LINE
5
126
100
AcDbEntity
8
0
100
AcDbLine
10
95.227781679544023
20
-196.64929805555551
30
0
11
95.227781679544023
21
-198.14929805555553
31
0
0
LINE
5
127
100
AcDbEntity
8
0
100
AcDbLine
10
156.22778167954408
20
-200.14929805555551
30
0
11
103.22778167954405
21
-200.14929805555553
31
0
0
LINE
5
128
100
AcDbEntity
8
0
100
AcDbLine
10
93.227781679544037
20
-200.14929805555553
30
0
11
71.227781679544009
21
-200.14929805555553
31
0
0
ARC
5
129
100
AcDbEntity
8
0
100
AcDbCircle
10
98.227781679544037
20
-196.64929805555551
30
0
40
3.0000000000000071
100
AcDbArc
50
0
51
180
0
ARC
5
130
100
AcDbEntity
8
0
100
AcDbCircle
10
161.22778167954405
20
-196.64929805555551
30
0
40
3.0000000000000071
100
AcDbArc
50
90
51
180
0
ARC
5
131
100
AcDbEntity
8
0
100
AcDbCircle
10
161.22778167954405
20
-148.44929805555554
30
0
40
2.9999999999999893
100
AcDbArc
50
180
51
270
0
ARC
5
132
100
AcDbEntity
8
0
100
AcDbCircle
10
98.227781679544037
20
-148.44929805555554
30
0
40
3.0000000000000071
100
AcDbArc
50
-180
51
0
0
LINE
5
133
100
AcDbEntity
8
0
100
AcDbLine
10
87.057781679544078
20
-144.94929805555554
30
0
11
93.227781679544023
21
-144.94929805555554
31
0
0
ARC
5
134
100
AcDbEntity
8
0
100
AcDbCircle
10
93.227781679544037
20
-146.94929805555552
30
0
40
1.9999999999999929
100
AcDbArc
50
0
51
90.000000000000398
0
ARC
5
135
100
AcDbEntity
8
0
100
AcDbCircle
10
103.22778167954404
20
-146.94929805555554
30
0
40
1.9999999999999929
100
AcDbArc
50
90.000000000001208
51
180
0
ARC
5
136
100
AcDbEntity
8
0
100
AcDbCircle
10
156.22778167954402
20
-146.94929805555563
30
0
40
2.0000000000000107
100
AcDbArc
50
0
51
89.99999999999919
0
ARC
5
137
100
AcDbEntity
8
0
100
AcDbCircle
10
162.72778167954408
20
-153.44929805555552
30
0
40
1.9999999999999929
100
AcDbArc
50
0
51
90
0
ARC
5
138
100
AcDbEntity
8
0
100
AcDbCircle
10
162.72778167954408
20
-191.64929805555551
30
0
40
1.9999999999999929
100
AcDbArc
50
-90
51
0
0
ARC
5
139
100
AcDbEntity
8
0
100
AcDbCircle
10
156.22778167954405
20
-198.14929805555553
30
0
40
1.9999999999999574
100
AcDbArc
50
-89.99999999999919
51
0
0
ARC
5
140
100
AcDbEntity
8
0
100
AcDbCircle
10
103.22778167954404
20
-198.14929805555553
30
0
40
1.9999999999999929
100
AcDbArc
50
180
51
270.0000000000004
0
ARC
5
141
100
AcDbEntity
8
0
100
AcDbCircle
10
93.227781679544037
20
-198.14929805555553
30
0
40
1.9999999999999929
100
AcDbArc
50
-90
51
0
0
LINE
5
142
100
AcDbEntity
8
0
100
AcDbLine
10
149.92778167954407
20
-144.94929805555563
30
0
11
149.92778167954407
21
-142.94929130384349
31
0
0
LINE
5
143
100
AcDbEntity
8
0
100
AcDbLine
10
140.92778167954407
20
-144.9492980555556
30
0
11
140.92778167954407
21
-142.94929805555554
31
0
0
LINE
5
144
100
AcDbEntity
8
0
100
AcDbLine
10
164.72778167954405
20
-190.95929805555554
30
0
11
166.72778167954405
21
-190.95929805555554
31
0
0
LINE
5
145
100
AcDbEntity
8
0
100
AcDbLine
10
164.72778167954405
20
-156.43344411271087
30
0
11
166.72915907753378
21
-156.43206576578166
31
0
0
LINE
5
146
100
AcDbEntity
8
0
100
AcDbLine
10
164.72778167954405
20
-154.43206624008803
30
0
11
164.72778167954405
21
-156.43344411271087
31
0
0
LINE
5
147
100
AcDbEntity
8
0
100
AcDbLine
10
164.72778167954405
20
-190.95929805555554
30
0
11
164.72778167954405
21
-192.95929805555551
31
0
0
LINE
5
148
100
AcDbEntity
8
0
100
AcDbLine
10
166.72778167954405
20
-154.43206624008803
30
0
11
166.72778167954405
21
-156.43206671439449
31
0
0
LINE
5
149
100
AcDbEntity
8
0
100
AcDbLine
10
166.72778167954405
20
-190.95929805555554
30
0
11
166.72778167954405
21
-192.95929805555551
31
0
0
LINE
5
150
100
AcDbEntity
8
0
100
AcDbLine
10
103.22778167954399
20
-144.94929805555554
30
0
11
140.92778167954407
21
-144.9492980555556
31
0
0
LINE
5
151
100
AcDbEntity
8
0
100
AcDbLine
10
149.92778167954407
20
-144.94929805555563
30
0
11
156.22778167954405
21
-144.94929805555563
31
0
0
LINE
5
152
100
AcDbEntity
8
0
100
AcDbLine
10
87.057781679544064
20
-142.94929805555554
30
0
11
140.92778167954407
21
-142.94929805555554
31
0
0
LINE
5
153
100
AcDbEntity
8
0
100
AcDbLine
10
149.92778167954407
20
-142.94929130384349
30
0
11
161.72778167954397
21
-142.94929805555554
31
0
0
ENDSEC
0
SECTION
2
OBJECTS
0
DICTIONARY
5
C
100
AcDbDictionary
3
ACAD_GROUP
350
D
3
ACAD_MLINESTYLE
350
17
0
DICTIONARY
5
D
100
AcDbDictionary
0
DICTIONARY
5
1A
330
C
100
AcDbDictionary
0
DICTIONARY
5
17
100
AcDbDictionary
0
ENDSEC
0
EOF
